<svg xmlns="http://www.w3.org/2000/svg" width="174.835" height="168" viewBox="0 0 174.835 168"><path fill="#fff" d="M161.4-149.4,142.8-131l-18.4-18.4L142.8-168ZM184.8-40.6q1.4,21.2-9.6,30.9T133.8,0H96Q63.4,0,51.9-1A63.11,63.11,0,0,1,31.8-5.8q-13.6-6-18.8-19T12-54.2l7.6-29.2L44-76,36.2-45.8q-1.6,6-.4,8.9t6,5.1q4.4,1.8,14.6,2.6t40.6.8h37.2q17.8,0,22.4-1.8t4-9q-15,.6-20.2.6-16.2,0-26-9.1T104.4-73q-.4-18.8,8.8-31.6t26.4-14q17.6-1.4,29.4,10.8t13.2,32.6ZM127.2-75.2q1,10.6,13.2,10.6,9.6,0,18-.8l-.6-7.8q-1-9.8-5.4-15.1A13.074,13.074,0,0,0,141-93.2a12.536,12.536,0,0,0-10.5,5.5A19.323,19.323,0,0,0,127.2-75.2Z" transform="translate(-10.123 168)"/></svg>