<svg xmlns="http://www.w3.org/2000/svg" width="173.658" height="154.8" viewBox="0 0 173.658 154.8"><path fill="#fff" d="M181.6-55.8q4.6,17-.5,30.4T162-5.8A63.507,63.507,0,0,1,141.7-1Q130,0,97,0,63.8,0,52.1-1A63.507,63.507,0,0,1,31.8-5.8q-13.6-6-18.8-19T12-54.2l7.6-29.2L44-76,36.2-45.8q-1.6,6-.4,8.9t6,5.1q4.4,1.8,14.6,2.6t40.6.8q31,0,40.8-.8T152-31.8q5.4-2.4,6.4-5.5t-1.2-11.3l-7.6-27.8L174-83.6ZM78.4,12.4,94.8,29,78.4,45.2,62,29ZM101.8,29l16.4-16.6L134.6,29,118.2,45.2Zm-17,28.6L98.4,44.4l13.4,13.2L98.4,71.2Z" transform="translate(-10.123 83.6)"/></svg>