<svg xmlns="http://www.w3.org/2000/svg" width="225.084" height="190.993" viewBox="0 0 225.084 190.993"><path fill="#fff" d="M184.6-128.4l-13.4,13.6-13.4-13.6,13.4-13.4Zm-17,29L151.2-83,134.8-99.4l16.4-16.4ZM191-83,174.6-99.4,191-115.8l16.4,16.4Zm41.8,29.2q6.4,23-4.5,38.4T196.6,0q-14.4,0-24-9.2Q162.8,0,148,0a35.268,35.268,0,0,1-13.4-2.6q.8,21.4-12.1,32.4T82.2,47.2q-17.2,3.4-30.9,1A43.045,43.045,0,0,1,28.2,36.7,57.448,57.448,0,0,1,14.1,14.6Q9.4,1.6,10.2-16a129.841,129.841,0,0,1,7.6-37l24,9.4Q29.8-8.8,39.4,8.5T76.6,19.4q4.6-1,7.3-1.7t6.3-1.6a56.783,56.783,0,0,0,5.5-1.6q1.9-.7,4.3-1.8a20.438,20.438,0,0,0,3.6-2,24.808,24.808,0,0,0,2.6-2.3,7.739,7.739,0,0,0,1.9-2.8,24.6,24.6,0,0,0,.9-3.4,21.381,21.381,0,0,0,.4-4.2,31.728,31.728,0,0,0-.4-4.8l-8.2-55,25-4L129.2-43q2,8.4,6.1,11.5T148-28.4q7.8,0,10.3-2.6t2.5-7.8V-63.6h23.8v24.8q0,5.6,2.7,8t9.3,2.4q8.2,0,11.3-4t.5-14.2l-8-29.8,24.4-7.2Z" transform="translate(-10.084 141.8)"/></svg>