<svg xmlns="http://www.w3.org/2000/svg" width="173.658" height="102.4" viewBox="0 0 173.658 102.4"><path fill="#fff" d="M93.2-86,76.8-69.6,60.4-86l16.4-16.4Zm40,0L116.8-69.6,100.4-86l16.4-16.4Zm48.4,30.2q4.6,17-.5,30.4T162-5.8A63.507,63.507,0,0,1,141.7-1Q130,0,97,0,63.8,0,52.1-1A63.507,63.507,0,0,1,31.8-5.8q-13.6-6-18.8-19T12-54.2l7.6-29.2L44-76,36.2-45.8q-1.6,6-.4,8.9t6,5.1q4.4,1.8,14.6,2.6t40.6.8q31,0,40.8-.8T152-31.8q5.4-2.4,6.4-5.5t-1.2-11.3l-7.6-27.8L174-83.6Z" transform="translate(-10.123 102.4)"/></svg>