<svg xmlns="http://www.w3.org/2000/svg" width="125.057" height="175.103" viewBox="0 0 125.057 175.103"><path fill="#fff" d="M128.4,27.4,135,54.8,83.4,69q-24.2,6-44.5-5.5T12.2,28.4Q5.6,4.2,18.3-16.9T60.2-45.8l42.4-10.8-33-16.6A20,20,0,0,0,55-74.8a19.719,19.719,0,0,0-11.8,9l-3.4,6.4-22-13.8,3.8-7.2q10.4-17.2,26.8-22T82-98l52.2,29.2L130.6-36,66.8-18.4Q47.6-13.2,40.4-2.7a27.236,27.236,0,0,0-4,23.1Q39.6,32.8,51.7,39T78,41.4ZM108-8.6,99.2,8.2l-17-9,9-16.6ZM49.8,9l9-16.6L75.6,1.2,66.8,18Zm47.6,5.6L88.6,31.4l-17-9,9-16.6Z" transform="translate(-9.943 104.046)"/></svg>