<svg xmlns="http://www.w3.org/2000/svg" width="130.361" height="178.993" viewBox="0 0 130.361 178.993"><path fill="#fff" d="M72.8-97,56.6-113.4l16.2-16.4,16.4,16.4Zm40,0L96.4-113.4l16.4-16.4,16.4,16.4ZM82.2,47.2q-17.2,3.4-30.9,1A43.045,43.045,0,0,1,28.2,36.7,57.448,57.448,0,0,1,14.1,14.6Q9.4,1.6,10.2-16a129.841,129.841,0,0,1,7.6-37l24,9.4Q29.8-8.8,39.4,8.5T76.6,19.4q20.6-4.2,29.5-8.2t8.5-11l-.2-3.6a128.055,128.055,0,0,1-21,1.6Q77.6-1.8,67.1-12T55-38.6A48.068,48.068,0,0,1,64.5-72Q75.4-86.6,92.8-87.4a36.52,36.52,0,0,1,29.6,12q12,12.8,14.2,34L140-9.2q2.6,25.6-10,37.1T82.2,47.2ZM93.4-30a95.676,95.676,0,0,0,18.8-1.8l-.6-6.2q-1-10.4-5.7-15.9A14.411,14.411,0,0,0,94-59.2a12.55,12.55,0,0,0-10.4,5.6,18.885,18.885,0,0,0-3.2,12.8Q81-30,93.4-30Z" transform="translate(-10.084 129.8)"/></svg>