<svg xmlns="http://www.w3.org/2000/svg" width="108.891" height="209.11" viewBox="0 0 108.891 209.11"><path fill="#fff" d="M85.6-135.6,67.2-117.2,48.8-135.6l18.4-18.6ZM116.4,20.8l2.4,28.4L65.2,54.6A47.369,47.369,0,0,1,28.4,43.4Q12.4,30,10.2,8.8a49.708,49.708,0,0,1,5.6-29.1A51.875,51.875,0,0,1,36.4-41.4a44.956,44.956,0,0,1-6-15.8,41.75,41.75,0,0,1,6.3-32.2A39.028,39.028,0,0,1,63.4-107a53.126,53.126,0,0,1,14,.3,121.236,121.236,0,0,1,15,2.7l6.2,1.4L92-75.2q-2-.6-5.1-1.3t-9.7-1.8q-6.6-1.1-9.4-.7Q61-77.6,57.5-73.2A12.309,12.309,0,0,0,55-63a13.313,13.313,0,0,0,6.4,9.4,16.287,16.287,0,0,0,12,2.2l34-6.2,4.4,28L58.4-19.8q-11.2,2-17.6,9.2A20.154,20.154,0,0,0,35.4,5.6a21.93,21.93,0,0,0,9,15.7,24.968,24.968,0,0,0,18.2,5.1Z" transform="translate(-9.909 154.2)"/></svg>