<svg xmlns="http://www.w3.org/2000/svg" width="78.6" height="106" viewBox="0 0 78.6 106"><path fill="#fff" d="M68.8-81.2Q79.2-71.6,83.9-62a48.475,48.475,0,0,1,4.7,21.6A40.336,40.336,0,0,1,77.2-11.6,36.891,36.891,0,0,1,49.4.4a37.207,37.207,0,0,1-27.9-12A40.148,40.148,0,0,1,10-40.4q0-19.4,16.8-36.2l3.6-3.6-5.2-5,17.4-20.4ZM38.8-31a15.2,15.2,0,0,0,10.6,3.8A14.837,14.837,0,0,0,59.9-31,12.3,12.3,0,0,0,64-40.4a16.951,16.951,0,0,0-2.4-8.7q-2.4-4.1-9.8-11.1l-2.6-2.4-3.4,3.4Q34.6-48,34.6-40.4A12.171,12.171,0,0,0,38.8-31Z" transform="translate(-10 105.6)"/></svg>