<svg xmlns="http://www.w3.org/2000/svg" width="124.488" height="134.393" viewBox="0 0 124.488 134.393"><path fill="#fff" d="M69.4-48.2,51-66.6,69.4-85.2,87.8-66.6ZM82.2,47.2q-17.2,3.4-30.9,1A43.045,43.045,0,0,1,28.2,36.7,57.448,57.448,0,0,1,14.1,14.6Q9.4,1.6,10.2-16a129.841,129.841,0,0,1,7.6-37l24,9.4Q29.8-8.8,39.4,8.5T76.6,19.4q4.6-1,7.3-1.7t6.3-1.6a56.783,56.783,0,0,0,5.5-1.6q1.9-.7,4.3-1.8a20.438,20.438,0,0,0,3.6-2,24.808,24.808,0,0,0,2.6-2.3,7.739,7.739,0,0,0,1.9-2.8,24.6,24.6,0,0,0,.9-3.4,21.381,21.381,0,0,0,.4-4.2,31.728,31.728,0,0,0-.4-4.8l-8.2-55,25-4q6.8,45.4,8,55,1.8,13.2-.6,22.9a32.936,32.936,0,0,1-9.5,16.4,58.378,58.378,0,0,1-17,11A144.725,144.725,0,0,1,82.2,47.2Z" transform="translate(-10.084 85.2)"/></svg>