<svg xmlns="http://www.w3.org/2000/svg" width="240.316" height="134.993" viewBox="0 0 240.316 134.993"><path fill="#fff" d="M209-85.8A38.654,38.654,0,0,1,238.5-73q11.9,12.8,11.9,31.6,0,16.6-12.3,29T209,0H142a30.657,30.657,0,0,1-7.4-1q.2,20.4-12.7,31.2t-39.7,17q-17.2,3.4-30.9,1A43.045,43.045,0,0,1,28.2,36.7,57.448,57.448,0,0,1,14.1,14.6Q9.4,1.6,10.2-16a129.841,129.841,0,0,1,7.6-37l24,9.4Q29.8-8.8,39.4,8.5T76.6,19.4q4.6-1,7.3-1.7t6.3-1.6a56.783,56.783,0,0,0,5.5-1.6q1.9-.7,4.3-1.8a20.438,20.438,0,0,0,3.6-2,24.808,24.808,0,0,0,2.6-2.3,7.739,7.739,0,0,0,1.9-2.8,24.6,24.6,0,0,0,.9-3.4,21.381,21.381,0,0,0,.4-4.2,31.728,31.728,0,0,0-.4-4.8l-8.2-55,25-4L128-51q2.4,14.2,5,18.4t8.2,4.2h4.6l12.4-17.2Q174.6-68.2,184.7-77A35.735,35.735,0,0,1,209-85.8Zm0,57.4a16.831,16.831,0,0,0,11.1-4.1q4.9-4.1,4.9-8.9a15.764,15.764,0,0,0-4.4-11.5q-4.4-4.5-11.6-4.5-6.8,0-12.4,5.5T179.2-29.6l-.8,1.2Z" transform="translate(-10.084 85.8)"/></svg>