<svg xmlns="http://www.w3.org/2000/svg" width="85.455" height="137.047" viewBox="0 0 85.455 137.047"><path fill="#fff" d="M96.2-7.4q1.2,11.6-.8,19.8a37.641,37.641,0,0,1-6.5,14.1q-4.5,5.9-13.7,10.4a124.87,124.87,0,0,1-20.3,7.7q-11.1,3.2-28.5,6.6l-5-27.6Q33.6,21,40,19.6t13.1-3.3A56,56,0,0,0,62.5,13a24.067,24.067,0,0,0,5.2-3.7,9.8,9.8,0,0,0,3.1-4.7,21.582,21.582,0,0,0,.4-6.2A130.776,130.776,0,0,1,49.8,0Q34,0,23.4-10.2t-12-26.6a47.63,47.63,0,0,1,9.3-33.5Q31.6-85,49-85.8a36.52,36.52,0,0,1,29.6,12q12,12.8,14.2,34ZM36.6-39q1,10.6,13.2,10.6a113.573,113.573,0,0,0,18.6-1.4l-.6-6.4q-1-10.4-5.7-16a13.573,13.573,0,0,0-11.7-5.2,12.727,12.727,0,0,0-10.6,5.6A18.885,18.885,0,0,0,36.6-39Z" transform="translate(-11.195 85.847)"/></svg>