<svg xmlns="http://www.w3.org/2000/svg" width="125.84" height="135.195" viewBox="0 0 125.84 135.195"><path fill="#fff" d="M82.2,47.2q-17.2,3.4-30.9,1A43.045,43.045,0,0,1,28.2,36.7,57.448,57.448,0,0,1,14.1,14.6Q9.4,1.6,10.2-16a129.841,129.841,0,0,1,7.6-37l24,9.4Q29.8-8.8,39.4,8.5T76.6,19.4Q110.2,11.8,110.2,8q0-.8-2.6-1.6t-9-2.6Q92.2,2,87.4.4,69.6-5.8,63.1-16t-.5-30q6-20.2,22-32T121-84.2l13,3.6-6.6,27.4-13-3.6a20.744,20.744,0,0,0-12.1,0,16.859,16.859,0,0,0-8.6,6A60.978,60.978,0,0,0,89-43.6a24.228,24.228,0,0,0-2.2,5.4q-1.6,5.8.6,8T99.2-25q20.6,6.4,25.4,9.2,8.6,5,10.8,16.2,3,16.4-11.2,28.4T82.2,47.2Z" transform="translate(-10.084 86.002)"/></svg>