<svg width="38" height="26" viewBox="0 0 38 26" fill="none" xmlns="http://www.w3.org/2000/svg">
<path d="M14.371 9.88328L20.6776 3.66223H30.5704V6.41654e-07H20.6681C19.6857 -0.000574532 18.7426 0.385557 18.0427 1.07489L11.7551 7.31495H3.64111C2.94141 7.31242 2.26922 7.5873 1.77178 8.07939C1.27435 8.57148 0.992212 9.24066 0.987183 9.94035V18.3492H4.67795V10.9677H11.7646C12.7535 10.9636 13.702 10.5747 14.409 9.88328" fill="white"/>
<path d="M12.069 14.668H8.36872V18.3492H4.64941V22.0019H8.36872V25.6832H12.069V22.0019H15.7883V18.3492H12.069V14.668Z" fill="white"/>
<path d="M30.5799 14.668H26.8796V18.3492H23.1508V22.0019H26.8796V25.6832H30.5799V22.0019H34.2992V18.3492H30.5799V14.668Z" fill="white"/>
<path d="M34.2993 7.3531H30.5704V11.0058H34.2993V18.3493H37.99V9.97849C37.9888 9.63166 37.9191 9.28849 37.7849 8.96867C37.6508 8.64884 37.4548 8.35864 37.2082 8.11473C36.9616 7.87081 36.6693 7.67798 36.3481 7.54728C36.0268 7.41658 35.6829 7.35059 35.3361 7.3531H34.2993Z" fill="white"/>
</svg>
