<svg xmlns="http://www.w3.org/2000/svg" viewBox="0 0 480 336.63"><title>FaviconBlack</title><path d="M189.9,217.22l81.76-81.65H399.85V87.69H271.5a48,48,0,0,0-33.95,14.08L156,183.52H50.44A34.44,34.44,0,0,0,16,218v110.2H63.89V231.41h91.72A48.51,48.51,0,0,0,189.9,217.22Z" transform="translate(-16 -87.69)"/><polygon points="144.04 192.21 96.15 192.21 96.15 240.47 47.89 240.47 47.89 288.36 96.15 288.36 96.15 336.63 144.04 336.63 144.04 288.36 192.31 288.36 192.31 240.47 144.04 240.47 144.04 192.21"/><polygon points="383.85 192.21 335.96 192.21 335.96 240.47 287.69 240.47 287.69 288.36 335.96 288.36 335.96 336.63 383.85 336.63 383.85 288.36 432.11 288.36 432.11 240.47 383.85 240.47 383.85 192.21"/><path d="M448.11,184H399.85v47.89h48.26v96.31H496V218.4A34.44,34.44,0,0,0,461.56,184Z" transform="translate(-16 -87.69)"/></svg>