<svg   viewBox="62 6 130 33" fill="none" xmlns="http://www.w3.org/2000/svg" style="width: 98px;height: 25px">
<path d="M148.4 23.8C148.4 23.8 148.4 18.7001 148.4 16.0001C148.4 13.9001 146.7 12.3 144.6 12.3C140 12.3 132.7 12.3 130.5 12.3C129.7 12.3 129 13 129 13.8V32.4001H134V27.3C134.1 27.3 136.9 27.3 138.2 27.3C139.1 27.3 139.9 27.6001 140.4 28.4001C141.1 29.6001 142.8 32.2001 142.9 32.4001H148.3C147.2 30.7001 146.2 29 145.1 27.3C147 27.1 148.4 25.6 148.4 23.8ZM143.4 22.5001H134.1V16.8H143.4V22.5001Z" fill="white"/>
<path d="M83.9004 13.7001V30.9001C83.9004 31.7001 84.6004 32.4001 85.4004 32.4001H100.7V27.8001C99.3004 27.8001 90.2004 27.8001 88.9004 27.8001V24.6001H100.7V20.0001H88.9004V16.9001H100.7V12.3001C100.6 12.3001 89.5004 12.3001 85.4004 12.3001C84.6004 12.2001 83.9004 12.9001 83.9004 13.7001Z" fill="white"/>
<path d="M124.6 16.0001C124.6 13.9001 122.9 12.3 120.8 12.3C117.5 12.3 109.9 12.3 106.7 12.3C105.9 12.3 105.2 13 105.2 13.8C105.2 18.5 105.2 32.3001 105.2 32.5001H110.2V27.3C112.6 27.3 117.4 27.3 120.8 27.3C122.9 27.3 124.5 25.6001 124.5 23.5001C124.6 20.8001 124.6 17.5001 124.6 16.0001ZM119.6 22.5001H110.3V16.8H119.6V22.5001Z" fill="white"/>
<path d="M75.5996 20.0001C72.1996 20.0001 67.6996 20.0001 67.5996 20.0001V16.9001H79.3996V12.3H79.0996C76.2996 12.3 70.2996 12.3 66.3996 12.3C64.2996 12.3 62.6996 14.0001 62.5996 16.0001C62.5996 17.9001 62.5996 19.9001 62.5996 20.9001C62.5996 23.0001 64.2996 24.6001 66.3996 24.7001C69.7996 24.7001 74.2996 24.7001 74.3996 24.7001V27.9001H62.5996V32.5001H75.5996C77.6996 32.5001 79.3996 30.8001 79.3996 28.7001V23.8C79.3996 21.6 77.6996 20.0001 75.5996 20.0001Z" fill="white"/>
<path d="M162.4 15.9999V20.9C162.4 23 164.1 24.7 166.1 24.7C169.5 24.7 174 24.7 174.1 24.7V27.7999H162.3V32.4C162.4 32.4 162.3 32.4 162.3 32.4H175.3C177.4 32.4 179.1 30.6999 179.1 28.5999V23.7C179.1 21.6 177.4 19.9 175.3 19.9C171.9 19.9 167.4 19.9 167.3 19.9C167.3 19.1 167.3 17.2999 167.3 16.7999H179V12.2C178.9 12.2 170.9 12.2 166 12.2C164.1 12.2 162.4 13.8999 162.4 15.9999Z" fill="white"/>
<path d="M157.3 12.2H152.5V32.4H157.3V12.2Z" fill="white"/>
</svg>
