<svg width="91" height="27" viewBox="0 0 91 27" fill="none" xmlns="http://www.w3.org/2000/svg">
<path d="M9.276 18.544C6.336 18.544 3.648 17.088 2.164 14.512C1.94 14.26 1.436 14.148 1.072 14.26C0.82 14.512 0.568 14.96 0.82 15.324C2.668 18.292 5.86 20.028 9.276 20.028C12.832 20.028 16.024 18.18 17.732 15.128C17.984 14.736 17.872 14.26 17.62 14.148L2.78 4.824C4.376 2.864 6.7 1.884 9.276 1.884C11.964 1.884 14.54 3.2 16.136 5.44C16.388 5.804 16.892 5.916 17.256 5.664C17.62 5.44 17.62 4.936 17.368 4.544C15.52 1.884 12.468 0.259999 9.276 0.259999C6.084 0.259999 3.284 1.744 1.436 4.18C0.876 4.908 1.044 5.356 1.436 5.664C1.436 5.664 14.932 14.148 16.136 14.96C14.54 17.2 11.964 18.544 9.276 18.544ZM27.6825 6.252C25.8065 6.392 24.1825 7.232 23.0625 8.716C21.8025 10.116 21.3265 11.964 21.4385 13.84C21.6905 15.688 22.5585 17.312 23.9305 18.432C26.9265 20.896 31.2665 20.42 33.7865 17.536C33.9825 17.2 33.8705 16.668 33.6185 16.444C33.2265 16.192 32.7505 16.192 32.5265 16.556C30.6505 18.768 27.2905 19.16 24.9385 17.312C25.9185 16.444 33.7865 9.836 33.7865 9.836C33.8705 9.724 33.9825 9.472 33.9825 9.36C33.9825 9.108 33.8705 8.996 33.7865 8.856C33.5065 8.464 33.1145 8.1 32.7505 7.736C31.2665 6.588 29.5585 6 27.6825 6.252ZM22.9505 13.084C22.9505 11.824 23.3145 10.704 24.1825 9.724C25.0505 8.604 26.4225 7.848 27.7665 7.736C29.2785 7.624 30.6505 7.988 31.7705 8.996C31.8825 9.108 31.9945 9.108 32.1345 9.22C31.1265 10.116 24.7985 15.296 23.9305 16.192C23.3145 15.184 22.9505 14.176 22.9505 13.084ZM51.9627 12.944C51.9627 11.18 51.1787 9.388 49.8067 8.016C48.5187 6.616 46.7827 6 44.8787 6C41.0707 6 37.9067 9.024 37.7947 12.832V12.944V25.04C37.7947 25.46 38.1587 25.824 38.5507 25.824C39.0827 25.824 39.3347 25.46 39.3347 25.04V17.34C40.7067 18.992 42.5827 20 44.8787 20C48.7707 20 51.9627 16.836 51.9627 12.944ZM39.3347 12.944C39.3347 10.004 41.8547 7.484 44.8787 7.484C46.3627 7.484 47.6507 8.016 48.7707 9.136C49.8067 10.172 50.3107 11.544 50.3107 12.944C50.3107 15.968 47.9027 18.488 44.8787 18.488C41.8547 18.488 39.3347 15.968 39.3347 12.944ZM57.1654 6C56.6614 6 56.2694 6.392 56.2694 6.756V13.084V19.244C56.2694 19.636 56.6614 20.028 57.1654 20.028C57.5294 20.028 57.9214 19.636 57.9214 19.244V13.084C57.9214 9.92 60.4414 7.512 63.4654 7.512C64.2214 7.512 64.8654 7.652 65.6214 7.904L66.1254 8.156L66.2374 8.268L66.4894 8.408C66.8814 8.66 67.3854 8.52 67.6374 8.156C67.7494 8.016 67.7494 7.904 67.7494 7.764C67.7494 7.512 67.6934 7.204 67.4414 7.092L67.2174 6.924L66.8814 6.756L66.1254 6.504C65.2294 6.14 64.3614 6 63.4654 6C61.1974 6 59.1814 7.008 57.9214 8.66V6.756C57.9214 6.392 57.5294 6 57.1654 6ZM71.6353 6.616V19.3C71.6353 19.72 71.9433 20.084 72.4473 20.084C72.7833 20.084 73.2033 19.72 73.2033 19.3V6.616C73.2033 6.084 72.7833 5.804 72.4473 5.804C71.9433 5.804 71.6353 6.084 71.6353 6.616ZM89.6966 16.5C89.9486 16.108 89.8366 15.744 89.4446 15.492L79.5886 9.248C80.7086 8.128 82.0806 7.512 83.7046 7.512C85.4406 7.512 87.2046 8.492 88.2126 9.864C88.4366 10.256 88.9406 10.368 89.1926 10.116C89.5846 9.864 89.6966 9.36 89.4446 9.136C88.2126 7.12 85.9446 6 83.7046 6C81.4646 6 79.3366 7.008 78.0766 8.744C77.9646 8.884 77.9646 8.996 77.9646 9.136C77.8246 9.248 77.8246 9.36 77.8246 9.5C77.8246 9.752 77.9646 10.004 78.2166 10.116C78.2166 10.116 86.8126 15.604 87.9606 16.36C86.9526 17.732 85.3286 18.488 83.7046 18.488C81.7166 18.488 79.9526 17.48 78.9726 15.856C78.7206 15.492 78.3286 15.38 77.9646 15.604C77.5726 15.856 77.4606 16.36 77.7126 16.752C78.9726 18.74 81.2126 20 83.7046 20C86.1966 20 88.4366 18.74 89.6966 16.5Z" fill="#FEFEFE"/>
<path d="M2.164 14.512L2.3373 14.4122L2.32708 14.3944L2.31348 14.3791L2.164 14.512ZM1.072 14.26L1.01318 14.0688L0.965704 14.0835L0.930579 14.1186L1.072 14.26ZM0.82 15.324L0.989981 15.2182L0.984439 15.2102L0.82 15.324ZM17.732 15.128L17.5634 15.0196L17.5575 15.0303L17.732 15.128ZM17.62 14.148L17.5136 14.3173L17.5257 14.325L17.5388 14.3308L17.62 14.148ZM2.78 4.824L2.62491 4.69771L2.48214 4.87305L2.6736 4.99335L2.78 4.824ZM16.136 5.44L16.3005 5.32615L16.2989 5.32394L16.136 5.44ZM17.256 5.664L17.151 5.49342L17.1422 5.49956L17.256 5.664ZM17.368 4.544L17.5363 4.43578L17.5323 4.42989L17.368 4.544ZM1.436 4.18L1.59453 4.30195L1.59534 4.30088L1.436 4.18ZM1.436 5.664L1.31244 5.82126L1.32068 5.82774L1.32956 5.83332L1.436 5.664ZM16.136 14.96L16.2989 15.0761L16.418 14.9089L16.2478 14.7942L16.136 14.96ZM9.276 18.344C6.40329 18.344 3.78353 16.9226 2.3373 14.4122L1.9907 14.6118C3.51247 17.2534 6.26871 18.744 9.276 18.744V18.344ZM2.31348 14.3791C2.16491 14.212 1.93973 14.1058 1.71497 14.0545C1.48812 14.0028 1.23479 14.0007 1.01318 14.0688L1.13082 14.4512C1.27321 14.4073 1.45388 14.4052 1.62603 14.4445C1.80027 14.4842 1.93909 14.56 2.01452 14.6449L2.31348 14.3791ZM0.930579 14.1186C0.789242 14.2599 0.642666 14.4605 0.567263 14.6868C0.490454 14.9172 0.484016 15.1901 0.655562 15.4378L0.984439 15.2102C0.903984 15.0939 0.897546 14.9608 0.946737 14.8132C0.997334 14.6615 1.10276 14.5121 1.21342 14.4014L0.930579 14.1186ZM0.650221 15.4297C2.53504 18.4568 5.7915 20.228 9.276 20.228V19.828C5.9285 19.828 2.80096 18.1272 0.989779 15.2183L0.650221 15.4297ZM9.276 20.228C12.9028 20.228 16.1624 18.3423 17.9065 15.2257L17.5575 15.0303C15.8856 18.0177 12.7612 19.828 9.276 19.828V20.228ZM17.9002 15.2362C18.0534 14.9978 18.0979 14.7313 18.0627 14.5026C18.0288 14.2823 17.9122 14.059 17.7012 13.9652L17.5388 14.3308C17.5798 14.349 17.6452 14.4197 17.6673 14.5634C17.6881 14.6987 17.6626 14.8662 17.5638 15.0198L17.9002 15.2362ZM17.7264 13.9787L2.8864 4.65465L2.6736 4.99335L17.5136 14.3173L17.7264 13.9787ZM2.93509 4.95028C4.48848 3.0426 6.75243 2.084 9.276 2.084V1.684C6.64757 1.684 4.26352 2.68539 2.62491 4.69771L2.93509 4.95028ZM9.276 2.084C11.8991 2.084 14.4145 3.36854 15.9731 5.55605L16.2989 5.32394C14.6655 3.03146 12.0289 1.684 9.276 1.684V2.084ZM15.9716 5.55384C16.2812 6.00108 16.9076 6.14844 17.3698 5.82844L17.1422 5.49956C16.8764 5.68356 16.4948 5.60692 16.3004 5.32616L15.9716 5.55384ZM17.3608 5.83433C17.6067 5.68303 17.7249 5.43703 17.7425 5.18076C17.7599 4.92867 17.6819 4.66251 17.5362 4.43585L17.1998 4.65215C17.3061 4.81748 17.3541 4.99932 17.3435 5.15324C17.3331 5.30297 17.2693 5.42097 17.1512 5.49367L17.3608 5.83433ZM17.5323 4.42989C15.6479 1.71749 12.5352 0.0599988 9.276 0.0599988V0.459999C12.4008 0.459999 15.3921 2.05051 17.2037 4.65811L17.5323 4.42989ZM9.276 0.0599988C6.01877 0.0599988 3.16083 1.57544 1.27666 4.05912L1.59534 4.30088C3.40717 1.91256 6.14923 0.459999 9.276 0.459999V0.0599988ZM1.27748 4.05806C0.982269 4.44183 0.852642 4.78506 0.879752 5.09683C0.907274 5.41333 1.09164 5.64778 1.31244 5.82126L1.55956 5.50674C1.38836 5.37222 1.29273 5.22867 1.27825 5.06217C1.26336 4.89094 1.32973 4.64617 1.59452 4.30194L1.27748 4.05806ZM1.436 5.664C1.32956 5.83332 1.32961 5.83335 1.32971 5.83342C1.32982 5.83348 1.32997 5.83358 1.33017 5.83371C1.33058 5.83397 1.3312 5.83435 1.33202 5.83487C1.33365 5.83589 1.3361 5.83743 1.33934 5.83947C1.34583 5.84355 1.35552 5.84964 1.3683 5.85768C1.39387 5.87375 1.43183 5.89762 1.4814 5.92879C1.58054 5.99112 1.7261 6.08265 1.91178 6.19943C2.28315 6.43299 2.81503 6.76756 3.45704 7.17158C4.74107 7.97963 6.46564 9.06547 8.22782 10.1767C11.7547 12.4007 15.4255 14.7221 16.0242 15.1258L16.2478 14.7942C15.6425 14.3859 11.9633 12.0593 8.44118 9.83833C6.67886 8.72703 4.95418 7.64112 3.67009 6.83304C3.02804 6.429 2.49613 6.09441 2.12473 5.86083C1.93904 5.74404 1.79347 5.6525 1.69432 5.59016C1.64474 5.55899 1.60678 5.53512 1.5812 5.51904C1.56841 5.511 1.55872 5.50491 1.55223 5.50083C1.54899 5.49879 1.54654 5.49725 1.5449 5.49622C1.54408 5.49571 1.54347 5.49532 1.54306 5.49506C1.54285 5.49494 1.5427 5.49484 1.5426 5.49477C1.54249 5.49471 1.54244 5.49468 1.436 5.664ZM15.9731 14.8439C14.4137 17.0326 11.8977 18.344 9.276 18.344V18.744C12.0303 18.744 14.6663 17.3674 16.2989 15.0761L15.9731 14.8439ZM27.6825 6.252L27.6974 6.45179L27.7091 6.45022L27.6825 6.252ZM23.0625 8.716L23.2112 8.84979L23.2169 8.84337L23.2221 8.83648L23.0625 8.716ZM21.4385 13.84L21.2389 13.8519L21.2393 13.8595L21.2403 13.867L21.4385 13.84ZM23.9305 18.432L24.0575 18.2775L24.057 18.2771L23.9305 18.432ZM33.7865 17.536L33.9371 17.6676L33.9496 17.6532L33.9593 17.6368L33.7865 17.536ZM33.6185 16.444L33.7514 16.2945L33.7397 16.2842L33.7267 16.2758L33.6185 16.444ZM32.5265 16.556L32.679 16.6854L32.6889 16.6738L32.6968 16.6608L32.5265 16.556ZM24.9385 17.312L24.8059 17.1623L24.6265 17.3212L24.8149 17.4693L24.9385 17.312ZM33.7865 9.836L33.9151 9.98915L33.9327 9.97438L33.9465 9.956L33.7865 9.836ZM33.7865 8.856L33.958 8.7531L33.9539 8.74625L33.9492 8.73975L33.7865 8.856ZM32.7505 7.736L32.8919 7.59458L32.8829 7.58559L32.8729 7.57781L32.7505 7.736ZM24.1825 9.724L24.3325 9.85689L24.3406 9.84651L24.1825 9.724ZM27.7665 7.736L27.7517 7.53654L27.7499 7.53669L27.7665 7.736ZM31.7705 8.996L31.9121 8.85438L31.9043 8.84734L31.7705 8.996ZM32.1345 9.22L32.2674 9.36948L32.4446 9.21195L32.2594 9.06383L32.1345 9.22ZM23.9305 16.192L23.7598 16.2963L23.8945 16.5166L24.0741 16.3312L23.9305 16.192ZM27.6676 6.05255C25.738 6.19655 24.0597 7.06268 22.9029 8.59552L23.2221 8.83648C24.3053 7.40132 25.875 6.58744 27.6974 6.45144L27.6676 6.05255ZM22.9138 8.58221C21.61 10.031 21.1245 11.9359 21.2389 13.8519L21.6381 13.8281C21.5285 11.9921 21.995 10.201 23.2112 8.84979L22.9138 8.58221ZM21.2403 13.867C21.4986 15.7608 22.3895 17.4322 23.804 18.5869L24.057 18.2771C22.7275 17.1918 21.8824 15.6152 21.6367 13.813L21.2403 13.867ZM23.8035 18.5865C26.887 21.1225 31.3494 20.629 33.9371 17.6676L33.6359 17.4044C31.1836 20.211 26.966 20.6695 24.0575 18.2775L23.8035 18.5865ZM33.9593 17.6368C34.0875 17.4169 34.1081 17.1488 34.0676 16.914C34.0273 16.6806 33.9207 16.445 33.7514 16.2945L33.4856 16.5935C33.5683 16.667 33.6437 16.8094 33.6734 16.982C33.7029 17.1532 33.6815 17.3191 33.6137 17.4352L33.9593 17.6368ZM33.7267 16.2758C33.5018 16.1312 33.2425 16.0518 32.9953 16.0695C32.7423 16.0876 32.5056 16.2084 32.3562 16.4512L32.6968 16.6608C32.7714 16.5396 32.8847 16.4784 33.0238 16.4685C33.1685 16.4582 33.3432 16.5048 33.5103 16.6122L33.7267 16.2758ZM32.374 16.4266C30.5666 18.5577 27.3284 18.9354 25.0621 17.1547L24.8149 17.4693C27.2526 19.3846 30.7344 18.9783 32.679 16.6854L32.374 16.4266ZM25.0711 17.4617C25.5587 17.0299 27.7679 15.1632 29.8589 13.4014C30.9035 12.5213 31.9176 11.6682 32.6705 11.0351C33.047 10.7186 33.3581 10.4571 33.5752 10.2748C33.6837 10.1836 33.7687 10.1122 33.8265 10.0636C33.8555 10.0393 33.8776 10.0207 33.8925 10.0081C33.9 10.0019 33.9056 9.99712 33.9094 9.99394C33.9113 9.99235 33.9127 9.99115 33.9137 9.99035C33.9142 9.98995 33.9145 9.98965 33.9148 9.98945C33.9149 9.98935 33.915 9.98928 33.915 9.98923C33.9151 9.98918 33.9151 9.98915 33.7865 9.836C33.6579 9.68285 33.6578 9.68287 33.6578 9.68292C33.6577 9.68297 33.6576 9.68305 33.6575 9.68315C33.6573 9.68335 33.6569 9.68365 33.6564 9.68405C33.6555 9.68486 33.6541 9.68605 33.6522 9.68764C33.6484 9.69082 33.6427 9.69557 33.6353 9.70184C33.6203 9.71437 33.5982 9.73298 33.5693 9.75729C33.5114 9.8059 33.4264 9.87731 33.3178 9.96851C33.1008 10.1509 32.7896 10.4124 32.4131 10.729C31.6601 11.3621 30.646 12.2152 29.6011 13.0956C27.5131 14.8548 25.2983 16.7261 24.8059 17.1623L25.0711 17.4617ZM33.9465 9.956C34.0018 9.88223 34.0582 9.77514 34.1002 9.67593C34.139 9.5841 34.1825 9.46016 34.1825 9.36H33.7825C33.7825 9.3584 33.7826 9.36208 33.7807 9.3724C33.779 9.38215 33.776 9.39494 33.7715 9.41066C33.7624 9.44227 33.7487 9.48004 33.7318 9.52007C33.6968 9.60286 33.6552 9.67777 33.6265 9.716L33.9465 9.956ZM34.1825 9.36C34.1825 9.03719 34.0237 8.86259 33.958 8.7531L33.615 8.9589C33.7173 9.12941 33.7825 9.17881 33.7825 9.36H34.1825ZM33.9492 8.73975C33.6568 8.33028 33.2472 7.94981 32.8919 7.59458L32.6091 7.87742C32.9819 8.25019 33.3562 8.59772 33.6238 8.97225L33.9492 8.73975ZM32.8729 7.57781C31.3547 6.40339 29.5943 5.79339 27.6559 6.05378L27.7091 6.45022C29.5227 6.20661 31.1783 6.77261 32.6281 7.89419L32.8729 7.57781ZM23.1505 13.084C23.1505 11.8669 23.5003 10.7958 24.3322 9.85661L24.0328 9.59139C23.1287 10.6122 22.7505 11.7811 22.7505 13.084H23.1505ZM24.3406 9.84651C25.1758 8.76886 26.4973 8.04246 27.7831 7.93531L27.7499 7.53669C26.3477 7.65354 24.9252 8.43914 24.0244 9.60149L24.3406 9.84651ZM27.7813 7.93545C29.2498 7.82668 30.5647 8.17983 31.6367 9.14466L31.9043 8.84734C30.7363 7.79617 29.3072 7.42132 27.7517 7.53655L27.7813 7.93545ZM31.6291 9.13742C31.711 9.21938 31.794 9.25938 31.8568 9.28896C31.919 9.31821 31.9608 9.33713 32.0096 9.37617L32.2594 9.06383C32.1682 8.99087 32.084 8.95379 32.0272 8.92704C31.971 8.90062 31.942 8.88462 31.9119 8.85458L31.6291 9.13742ZM32.0016 9.07052C31.5006 9.51584 29.6714 11.0309 27.8517 12.5526C26.0415 14.0663 24.2304 15.595 23.7869 16.0528L24.0741 16.3312C24.4986 15.893 26.2855 14.3837 28.1083 12.8594C29.9216 11.3431 31.7604 9.82016 32.2674 9.36948L32.0016 9.07052ZM24.1012 16.0877C23.4979 15.1006 23.1505 14.1286 23.1505 13.084H22.7505C22.7505 14.2234 23.1311 15.2674 23.7598 16.2963L24.1012 16.0877ZM49.8067 8.016L49.6593 8.15153L49.6652 8.15742L49.8067 8.016ZM37.7947 12.832L37.5947 12.8261V12.832H37.7947ZM39.3347 17.34L39.4885 17.2122L39.1347 16.7861V17.34H39.3347ZM48.7707 9.136L48.6292 9.27742L48.7707 9.136ZM52.1627 12.944C52.1627 11.1214 51.3535 9.27997 49.9481 7.87458L49.6652 8.15742C51.0038 9.49603 51.7627 11.2386 51.7627 12.944H52.1627ZM49.9538 7.88059C48.6209 6.43176 46.8272 5.8 44.8787 5.8V6.2C46.7381 6.2 48.4164 6.80024 49.6595 8.15141L49.9538 7.88059ZM44.8787 5.8C40.9643 5.8 37.71 8.90822 37.5947 12.8261L37.9946 12.8379C38.1033 9.13978 41.177 6.2 44.8787 6.2V5.8ZM37.5947 12.832V12.944H37.9947V12.832H37.5947ZM37.5947 12.944V25.04H37.9947V12.944H37.5947ZM37.5947 25.04C37.5947 25.5658 38.0436 26.024 38.5507 26.024V25.624C38.2737 25.624 37.9947 25.3542 37.9947 25.04H37.5947ZM38.5507 26.024C38.8653 26.024 39.1182 25.9146 39.2906 25.7235C39.46 25.5358 39.5347 25.2885 39.5347 25.04H39.1347C39.1347 25.2115 39.0833 25.3562 38.9937 25.4555C38.9071 25.5514 38.768 25.624 38.5507 25.624V26.024ZM39.5347 25.04V17.34H39.1347V25.04H39.5347ZM39.1808 17.4678C40.5869 19.1608 42.5173 20.2 44.8787 20.2V19.8C42.648 19.8 40.8264 18.8232 39.4885 17.2122L39.1808 17.4678ZM44.8787 20.2C48.8801 20.2 52.1627 16.9475 52.1627 12.944H51.7627C51.7627 16.7245 48.6612 19.8 44.8787 19.8V20.2ZM39.5347 12.944C39.5347 10.1164 41.9631 7.684 44.8787 7.684V7.284C41.7462 7.284 39.1347 9.89157 39.1347 12.944H39.5347ZM44.8787 7.684C46.3078 7.684 47.5454 8.19363 48.6292 9.27742L48.9121 8.99458C47.7559 7.83837 46.4175 7.284 44.8787 7.284V7.684ZM48.6292 9.27742C49.6244 10.2725 50.1107 11.5921 50.1107 12.944H50.5107C50.5107 11.4959 49.989 10.0715 48.9121 8.99458L48.6292 9.27742ZM50.1107 12.944C50.1107 15.8629 47.7869 18.288 44.8787 18.288V18.688C48.0184 18.688 50.5107 16.0731 50.5107 12.944H50.1107ZM44.8787 18.288C41.9651 18.288 39.5347 15.8575 39.5347 12.944H39.1347C39.1347 16.0785 41.7442 18.688 44.8787 18.688V18.288ZM65.6214 7.904L65.7109 7.72511L65.6981 7.71876L65.6847 7.71426L65.6214 7.904ZM66.1254 8.156L66.2668 8.01458L66.2439 7.99163L66.2149 7.97711L66.1254 8.156ZM66.2374 8.268L66.096 8.40942L66.1158 8.42923L66.1403 8.44283L66.2374 8.268ZM66.4894 8.408L66.5978 8.23942L66.5865 8.23317L66.4894 8.408ZM67.6374 8.156L67.4809 8.03076L67.473 8.04216L67.6374 8.156ZM67.4414 7.092L67.3214 7.252L67.3395 7.26557L67.3602 7.27476L67.4414 7.092ZM67.2174 6.924L67.3374 6.764L67.323 6.75318L67.3068 6.74511L67.2174 6.924ZM66.8814 6.756L66.9708 6.57711L66.9581 6.57076L66.9446 6.56626L66.8814 6.756ZM66.1254 6.504L66.05 6.68967L66.0622 6.69374L66.1254 6.504ZM57.9214 8.66H57.7214V9.25201L58.0804 8.78129L57.9214 8.66ZM57.1654 5.8C56.8611 5.8 56.5905 5.91828 56.3953 6.0922C56.2028 6.26377 56.0694 6.50364 56.0694 6.756H56.4694C56.4694 6.64435 56.532 6.50623 56.6615 6.3908C56.7884 6.27772 56.9657 6.2 57.1654 6.2V5.8ZM56.0694 6.756V13.084H56.4694V6.756H56.0694ZM56.0694 13.084V19.244H56.4694V13.084H56.0694ZM56.0694 19.244C56.0694 19.7632 56.5685 20.228 57.1654 20.228V19.828C56.7543 19.828 56.4694 19.5088 56.4694 19.244H56.0694ZM57.1654 20.228C57.4161 20.228 57.6537 20.0962 57.823 19.9227C57.9932 19.7484 58.1214 19.5047 58.1214 19.244H57.7214C57.7214 19.3753 57.6536 19.5236 57.5368 19.6433C57.4191 19.7638 57.2787 19.828 57.1654 19.828V20.228ZM58.1214 19.244V13.084H57.7214V19.244H58.1214ZM58.1214 13.084C58.1214 10.0324 60.5499 7.712 63.4654 7.712V7.312C60.3329 7.312 57.7214 9.80757 57.7214 13.084H58.1214ZM63.4654 7.712C64.1933 7.712 64.8151 7.84605 65.5582 8.09374L65.6847 7.71426C64.9157 7.45795 64.2496 7.312 63.4654 7.312V7.712ZM65.532 8.08288L66.036 8.33489L66.2149 7.97711L65.7109 7.72511L65.532 8.08288ZM65.984 8.29742L66.096 8.40942L66.3788 8.12658L66.2668 8.01458L65.984 8.29742ZM66.1403 8.44283L66.3923 8.58283L66.5865 8.23317L66.3345 8.09317L66.1403 8.44283ZM66.3813 8.57623C66.875 8.89361 67.4962 8.71128 67.8018 8.26984L67.473 8.04216C67.2746 8.32871 66.8879 8.42638 66.5976 8.23976L66.3813 8.57623ZM67.7936 8.28094C67.8676 8.18841 67.9097 8.0978 67.9306 8.00339C67.9502 7.91531 67.9494 7.83002 67.9494 7.764H67.5494C67.5494 7.83798 67.5486 7.87869 67.5402 7.91661C67.5331 7.9482 67.5192 7.98359 67.4812 8.03106L67.7936 8.28094ZM67.9494 7.764C67.9494 7.62615 67.9345 7.4596 67.8774 7.30586C67.8192 7.1493 67.7118 6.99332 67.5226 6.90924L67.3602 7.27476C67.423 7.30268 67.4696 7.3567 67.5024 7.44514C67.5363 7.5364 67.5494 7.64985 67.5494 7.764H67.9494ZM67.5614 6.932L67.3374 6.764L67.0974 7.084L67.3214 7.252L67.5614 6.932ZM67.3068 6.74511L66.9708 6.57711L66.792 6.93489L67.128 7.10289L67.3068 6.74511ZM66.9446 6.56626L66.1887 6.31426L66.0622 6.69374L66.8182 6.94574L66.9446 6.56626ZM66.2007 6.31871C65.2778 5.94377 64.3837 5.8 63.4654 5.8V6.2C64.3391 6.2 65.1811 6.33623 66.0501 6.68929L66.2007 6.31871ZM63.4654 5.8C61.1374 5.8 59.0616 6.83526 57.7624 8.53871L58.0804 8.78129C59.3012 7.18074 61.2574 6.2 63.4654 6.2V5.8ZM58.1214 8.66V6.756H57.7214V8.66H58.1214ZM58.1214 6.756C58.1214 6.50566 57.9899 6.26868 57.8213 6.10008C57.6527 5.93148 57.4157 5.8 57.1654 5.8V6.2C57.2791 6.2 57.4201 6.26452 57.5385 6.38292C57.6569 6.50132 57.7214 6.64233 57.7214 6.756H58.1214ZM71.4353 6.616V19.3H71.8353V6.616H71.4353ZM71.4353 19.3C71.4353 19.8258 71.8282 20.284 72.4473 20.284V19.884C72.0584 19.884 71.8353 19.6142 71.8353 19.3H71.4353ZM72.4473 20.284C72.6816 20.284 72.9181 20.1614 73.091 19.9926C73.2661 19.8217 73.4033 19.5769 73.4033 19.3H73.0033C73.0033 19.4431 72.9305 19.5903 72.8116 19.7064C72.6904 19.8246 72.549 19.884 72.4473 19.884V20.284ZM73.4033 19.3V6.616H73.0033V19.3H73.4033ZM73.4033 6.616C73.4033 5.95984 72.8795 5.604 72.4473 5.604V6.004C72.687 6.004 73.0033 6.20816 73.0033 6.616H73.4033ZM72.4473 5.604C72.1593 5.604 71.9002 5.68446 71.7127 5.8673C71.5243 6.05099 71.4353 6.31148 71.4353 6.616H71.8353C71.8353 6.38852 71.9003 6.24301 71.9919 6.1537C72.0844 6.06354 72.2313 6.004 72.4473 6.004V5.604ZM89.6966 16.5L89.5281 16.3917L89.5223 16.4019L89.6966 16.5ZM89.4446 15.492L89.5527 15.3238L89.5516 15.323L89.4446 15.492ZM79.5886 9.248L79.4472 9.10658L79.2705 9.28324L79.4816 9.41695L79.5886 9.248ZM88.2126 9.864L88.3862 9.76477L88.3806 9.75482L88.3738 9.74558L88.2126 9.864ZM89.1926 10.116L89.0844 9.94776L89.0664 9.95938L89.0512 9.97458L89.1926 10.116ZM89.4446 9.136L89.2739 9.24029L89.2895 9.2657L89.3117 9.28548L89.4446 9.136ZM78.0766 8.744L78.2329 8.86908L78.2385 8.86148L78.0766 8.744ZM77.9646 9.136L78.0895 9.29217L78.1646 9.23212V9.136H77.9646ZM78.2166 10.116L78.3242 9.94743L78.3116 9.93934L78.2978 9.93324L78.2166 10.116ZM87.9606 16.36L88.1218 16.4784L88.2464 16.3088L88.0706 16.193L87.9606 16.36ZM78.9726 15.856L79.1442 15.7525L79.137 15.7422L78.9726 15.856ZM77.9646 15.604L77.8598 15.4336L77.8564 15.4358L77.9646 15.604ZM77.7126 16.752L77.8815 16.6449L77.8808 16.6438L77.7126 16.752ZM89.8648 16.6082C90.0141 16.376 90.0684 16.1296 90.0054 15.8922C89.9434 15.6585 89.7767 15.4677 89.5527 15.3238L89.3364 15.6602C89.5045 15.7683 89.5898 15.8855 89.6188 15.9948C89.6468 16.1004 89.6311 16.232 89.5284 16.3918L89.8648 16.6082ZM89.5516 15.323L79.6956 9.07905L79.4816 9.41695L89.3376 15.6609L89.5516 15.323ZM79.73 9.38942C80.815 8.3044 82.1371 7.712 83.7046 7.712V7.312C82.0241 7.312 80.6022 7.9516 79.4472 9.10658L79.73 9.38942ZM83.7046 7.712C85.3712 7.712 87.0775 8.65686 88.0514 9.98242L88.3738 9.74558C87.3316 8.32714 85.51 7.312 83.7046 7.312V7.712ZM88.0389 9.96323C88.1789 10.2081 88.4072 10.3675 88.6444 10.4257C88.8799 10.4835 89.1468 10.4447 89.334 10.2574L89.0512 9.97458C88.9864 10.0393 88.8753 10.0705 88.7397 10.0373C88.606 10.0045 88.4703 9.91188 88.3862 9.76477L88.0389 9.96323ZM89.3007 10.2842C89.5395 10.1307 89.6966 9.89872 89.7543 9.66314C89.8113 9.43076 89.7759 9.16287 89.5775 8.98652L89.3117 9.28548C89.3653 9.33313 89.3999 9.42924 89.3659 9.56785C89.3326 9.70328 89.2377 9.84927 89.0844 9.94776L89.3007 10.2842ZM89.6152 9.03171C88.3434 6.95048 86.0072 5.8 83.7046 5.8V6.2C85.882 6.2 88.0818 7.28952 89.2739 9.24029L89.6152 9.03171ZM83.7046 5.8C81.4069 5.8 79.216 6.83372 77.9147 8.62652L78.2385 8.86148C79.4572 7.18228 81.5223 6.2 83.7046 6.2V5.8ZM77.9204 8.61906C77.8464 8.71159 77.8043 8.8022 77.7834 8.89661C77.7638 8.98469 77.7646 9.06998 77.7646 9.136H78.1646C78.1646 9.06202 78.1654 9.02131 78.1738 8.98339C78.1808 8.9518 78.1948 8.91641 78.2328 8.86894L77.9204 8.61906ZM77.8397 8.97983C77.7409 9.05884 77.6804 9.14845 77.6502 9.25107C77.6231 9.34317 77.6246 9.4362 77.6246 9.5H78.0246C78.0246 9.4238 78.0261 9.39083 78.034 9.36393C78.0388 9.34755 78.0483 9.32516 78.0895 9.29217L77.8397 8.97983ZM77.6246 9.5C77.6246 9.82246 77.8036 10.1513 78.1354 10.2988L78.2978 9.93324C78.1256 9.85668 78.0246 9.68154 78.0246 9.5H77.6246ZM78.2166 10.116C78.109 10.2846 78.109 10.2846 78.1091 10.2846C78.1091 10.2847 78.1092 10.2847 78.1094 10.2848C78.1096 10.285 78.11 10.2852 78.1105 10.2856C78.1116 10.2862 78.1131 10.2872 78.1152 10.2886C78.1193 10.2912 78.1255 10.2951 78.1337 10.3003C78.15 10.3107 78.1742 10.3262 78.2058 10.3464C78.269 10.3868 78.3619 10.4461 78.4806 10.5218C78.7178 10.6734 79.0581 10.8907 79.47 11.1539C80.2938 11.6802 81.4041 12.3898 82.5503 13.123C84.8437 14.59 87.278 16.15 87.8506 16.527L88.0706 16.193C87.4952 15.814 85.0575 14.252 82.7659 12.786C81.6196 12.0527 80.5092 11.3431 79.6853 10.8168C79.2734 10.5536 78.9331 10.3363 78.6958 10.1847C78.5772 10.109 78.4843 10.0496 78.421 10.0092C78.3894 9.98906 78.3652 9.9736 78.3489 9.96319C78.3408 9.95799 78.3346 9.95405 78.3305 9.95141C78.3284 9.95009 78.3268 9.94909 78.3258 9.94843C78.3253 9.94809 78.3249 9.94784 78.3246 9.94768C78.3245 9.94759 78.3244 9.94753 78.3243 9.94749C78.3242 9.94745 78.3242 9.94743 78.2166 10.116ZM87.7994 16.2416C86.8313 17.5593 85.2688 18.288 83.7046 18.288V18.688C85.3884 18.688 87.0739 17.9047 88.1218 16.4784L87.7994 16.2416ZM83.7046 18.288C81.7857 18.288 80.0871 17.3158 79.1438 15.7527L78.8014 15.9593C79.8181 17.6442 81.6475 18.688 83.7046 18.688V18.288ZM79.137 15.7422C78.9892 15.5286 78.7907 15.3757 78.5609 15.3159C78.3287 15.2555 78.084 15.2957 77.8598 15.4337L78.0694 15.7743C78.2092 15.6883 78.3425 15.6725 78.4603 15.7031C78.5805 15.7343 78.704 15.8194 78.8082 15.9698L79.137 15.7422ZM77.8564 15.4358C77.3724 15.7469 77.2321 16.3743 77.5444 16.8602L77.8808 16.6438C77.6891 16.3457 77.7728 15.9651 78.0727 15.7722L77.8564 15.4358ZM77.5437 16.8591C78.8407 18.9054 81.1447 20.2 83.7046 20.2V19.8C81.2805 19.8 79.1045 18.5746 77.8815 16.6449L77.5437 16.8591ZM83.7046 20.2C86.2673 20.2 88.5747 18.9024 89.8709 16.5981L89.5223 16.4019C88.2984 18.5776 86.1259 19.8 83.7046 19.8V20.2Z" fill="#FEFEFE"/>
</svg>
