<svg xmlns="http://www.w3.org/2000/svg" width="103" height="141.4" viewBox="0 0 103 141.4"><path fill="#fff" d="M63.6,3.2Q39.6,3.2,25.4-8T11.2-38.2v-6.2H40.4v4.8q0,7.2,6.9,12.3t18.5,5.1q9.6,0,14.2-4A12.5,12.5,0,0,0,84.6-36a10.849,10.849,0,0,0-5.3-9.5Q74-49,60.8-54.2a10.379,10.379,0,0,1-1.3-.4q-.5-.2-1.2-.5T57-55.6Q36.8-63.8,29.8-68.4,13-79.8,13-99q0-18,13.4-28.6t35-10.6q22.8,0,37.4,11.8t14.6,31v5H84.2V-94q0-7.6-6.5-13.2t-17.5-5.6q-8.6,0-13.3,3.5a11.618,11.618,0,0,0-4.7,9.9q0,6.8,6.4,11.1T71.8-78.2q7.8,2.8,11.1,4a95.025,95.025,0,0,1,10.6,5.1,44.841,44.841,0,0,1,10.9,7.6,38.062,38.062,0,0,1,6.7,10.2A32.789,32.789,0,0,1,114.2-37q0,18.8-13.8,29.5T63.6,3.2Z" transform="translate(-11.2 138.2)"/></svg>