<svg xmlns="http://www.w3.org/2000/svg" viewBox="0 0 152.24 52.45"><defs><style>.cls-1{fill:#fff;stroke:#fff;stroke-miterlimit:10;stroke-width:0.75px;}</style></defs><title>Asset 2</title><g id="Layer_2" data-name="Layer 2"><g id="Layer_1-2" data-name="Layer 1"><path class="cls-1" d="M52.36,26.23A26,26,0,1,1,26.15.38,26,26,0,0,1,52.36,26.23Zm-3.81,0c0-12-10.08-22-22.4-22a22.24,22.24,0,0,0-22,22,22.18,22.18,0,0,0,44.36,0Z"/><path class="cls-1" d="M64.89,33.86A13.74,13.74,0,0,0,78.5,47.47a1.93,1.93,0,1,1,0,3.81A17.89,17.89,0,0,1,60.78,33.57V2.82c0-1.29.94-1.94,2.23-1.94a1.84,1.84,0,0,1,1.88,1.94v12.6H79.14c1.3,0,2,.94,2,2.24a1.84,1.84,0,0,1-2,1.87H64.89Z"/><path class="cls-1" d="M106.07,14.92a17.93,17.93,0,0,1,13,5.26A18.89,18.89,0,0,1,124.36,33a18.36,18.36,0,1,1-18.29-18.07Zm10.08,8.28a13,13,0,0,0-10.08-4.39,14.33,14.33,0,0,0,0,28.66A14.56,14.56,0,0,0,120.47,33,14.07,14.07,0,0,0,116.15,23.2Z"/><path class="cls-1" d="M135.08.73a1.91,1.91,0,0,1,2,2V49.19a2.1,2.1,0,0,1-2,1.88,1.9,1.9,0,0,1-2-1.88V2.68A1.77,1.77,0,0,1,135.08.73Z"/><path class="cls-1" d="M149.92,14.78a2,2,0,0,1,1.94,2.08V49.48a2.16,2.16,0,0,1-1.94,2,2,2,0,0,1-2.09-2V16.86A1.89,1.89,0,0,1,149.92,14.78Z"/></g></g></svg>