<svg width="16" height="16" viewBox="0 0 16 16" fill="none" xmlns="http://www.w3.org/2000/svg">
<path d="M14.1511 1.7491C13.9689 1.22465 13.4711 0.851318 12.8889 0.851318H3.11111C2.52889 0.851318 2.03111 1.22465 1.84889 1.7491L0 7.07354V14.1847C0 14.6735 0.4 15.0735 0.888889 15.0735H1.77778C2.27111 15.0735 2.66667 14.6735 2.66667 14.1847V13.2958H13.3333V14.1847C13.3333 14.6735 13.7333 15.0735 14.2222 15.0735H15.1111C15.6044 15.0735 16 14.6735 16 14.1847V7.07354L14.1511 1.7491ZM3.11111 10.6291C2.37333 10.6291 1.77778 10.0335 1.77778 9.29576C1.77778 8.55799 2.37333 7.96243 3.11111 7.96243C3.84889 7.96243 4.44444 8.55799 4.44444 9.29576C4.44444 10.0335 3.84889 10.6291 3.11111 10.6291ZM12.8889 10.6291C12.1511 10.6291 11.5556 10.0335 11.5556 9.29576C11.5556 8.55799 12.1511 7.96243 12.8889 7.96243C13.6267 7.96243 14.2222 8.55799 14.2222 9.29576C14.2222 10.0335 13.6267 10.6291 12.8889 10.6291ZM1.77778 6.18465L3.11111 2.18465H12.8889L14.2222 6.18465H1.77778Z" fill="#116B98"/>
</svg>
