<svg xmlns="http://www.w3.org/2000/svg" viewBox="0 0 247.18 125.57"><defs><style>.a,.b,.c{fill:none;stroke:#8dd9de;stroke-width:6px;}.a,.b{stroke-linecap:round;}.a{stroke-miterlimit:10;}.b,.c{stroke-linejoin:round;}.c{stroke-linecap:square;}</style></defs><title>affordable</title><path class="a" d="M268,185.19c-2.94,3.26-9.24,3.49-10.38,3.49H248v-.15a21.26,21.26,0,0,0-42.51,0,1.28,1.28,0,0,0,0,.19l-107.79.1v-.17a20,20,0,0,0-39.91,0,1.34,1.34,0,0,0,0,.2H48.2c-7.8-1.72-10.61-4.22-10.61-4.22-3.91-3.14-5.69-5.19-7.3-9.61a10.65,10.65,0,0,1-.67-2.49s-.47-15.84,0-17c0,0,3.66-10.11,3.66-11.13v-7.82a19.79,19.79,0,0,1,5-7.52c1.4-1,4.84-2.74,6.56-2.66,0,0,10.87-.2,12.33-1.39L97.85,91.93a7.72,7.72,0,0,1,4.85-1.72h62.73a7.68,7.68,0,0,1,4.51,1.46l48.3,35.07c1.86,1.36,28.06,8.16,41.78,14.8,2.09,1,10.55,10,10.55,11.17v22C270.57,175.64,271,181.94,268,185.19Z" transform="translate(-26.41 -87.21)"/><path class="a" d="M97.66,188.66v.17a20,20,0,0,1-39.9,0,1.34,1.34,0,0,1,0-.2,20,20,0,0,1,39.91,0Z" transform="translate(-26.41 -87.21)"/><path class="a" d="M248,188.54v.15a21.25,21.25,0,0,1-42.5,0,1.28,1.28,0,0,1,0-.19,21.26,21.26,0,0,1,42.51,0Z" transform="translate(-26.41 -87.21)"/><polyline class="b" points="203.32 43.98 118.96 43.98 72.98 43.98 82.52 18.83"/><line class="c" x1="118.96" y1="14.06" x2="118.96" y2="43.98"/></svg>