<svg xmlns="http://www.w3.org/2000/svg" viewBox="0 0 250.07 142.03"><defs><style>.a{fill:none;stroke:#8dd9de;stroke-linecap:round;stroke-linejoin:round;stroke-width:6px;}</style></defs><title>SUV</title><path class="a" d="M270.75,136.42A6.76,6.76,0,0,1,272,139V193H250a24,24,0,0,0-48,0H122a24,24,0,0,0-48,0H50.53V131h181l36.59,3.5A6.38,6.38,0,0,1,270.75,136.42Z" transform="translate(-24.97 -78.98)"/><polyline class="a" points="39.07 3.03 25.57 52.48 206.07 52.03 159.07 3.03 28.57 3.03"/><path class="a" d="M74.05,193a24,24,0,0,1,48,0" transform="translate(-24.97 -78.98)"/><path class="a" d="M122,193c0,.33,0,.66,0,1a24,24,0,0,1-48,0c0-.34,0-.67,0-1" transform="translate(-24.97 -78.98)"/><path class="a" d="M202,193a24,24,0,0,1,48,0" transform="translate(-24.97 -78.98)"/><path class="a" d="M202,193a24,24,0,0,0,48,0" transform="translate(-24.97 -78.98)"/><path class="a" d="M32,167.14,50.53,167V131.46L53.67,119l-21.81.13S28,127.78,28,142.2A163,163,0,0,0,29.73,167Z" transform="translate(-24.97 -78.98)"/><line class="a" x1="130.19" y1="3" x2="130.48" y2="113.46"/><line class="a" x1="56.17" y1="3" x2="56.17" y2="51.87"/></svg>